<?xml version="1.0" encoding="UTF-8"?>
<svg version="1.1" xmlns="http://www.w3.org/2000/svg" width="500" height="500">
<path d="M0 0 C165 0 330 0 500 0 C500 165 500 330 500 500 C335 500 170 500 0 500 C0 335 0 170 0 0 Z " fill="#FEFEFE" transform="translate(0,0)"/>
<path d="M0 0 C0.886875 0.53625 1.77375 1.0725 2.6875 1.625 C10.70074231 9.85481642 12.29555178 18.20481428 12.31689453 29.28051758 C12.19519455 36.36240454 10.62047606 42.41685282 8 49 C7.63068359 49.93199219 7.63068359 49.93199219 7.25390625 50.8828125 C2.67078488 62.32921512 2.67078488 62.32921512 0 65 C-2.125 64.625 -2.125 64.625 -4 64 C-3.835 62.783125 -3.67 61.56625 -3.5 60.3125 C-2.19127961 47.90895601 -2.23504208 38.66493045 -10.25 28.6875 C-15.17633352 23.36917865 -21.30836014 20.32456478 -28.55859375 19.82299805 C-46.29809562 18.99248218 -46.29809562 18.99248218 -63 24 C-63.87269531 24.43570313 -64.74539063 24.87140625 -65.64453125 25.3203125 C-93.48724856 40.5983253 -103.69950162 79.77914478 -112 108 C-114.16805473 115.66172269 -116.20147656 123.35854195 -118.22265625 131.06005859 C-119.90048107 137.40565107 -121.67710578 143.72374702 -123.45458984 150.04199219 C-123.98735896 151.95461901 -124.50365225 153.87181104 -125.01953125 155.7890625 C-127.12799996 163.50051379 -129.75152914 170.70127285 -133 178 C-133.66858928 179.55572305 -134.33650442 181.11173592 -135.00390625 182.66796875 C-141.9897389 198.77815424 -150.59038686 212.89595213 -161 227 C-160.1322998 227.12528076 -159.26459961 227.25056152 -158.37060547 227.37963867 C-155.11502695 227.97882924 -152.19410316 228.84155906 -149.0703125 229.92578125 C-147.95301758 230.30855225 -146.83572266 230.69132324 -145.68457031 231.08569336 C-144.50991211 231.49053955 -143.33525391 231.89538574 -142.125 232.3125 C-122.07288618 239.09216398 -102.86662343 243.37522236 -81.62890625 243.37060547 C-79.36904202 243.37501162 -77.1110887 243.41160882 -74.8515625 243.44921875 C-60.67612932 243.55822192 -48.09154985 240.72940814 -37.4375 230.875 C-33.79562402 227.11671702 -31.26023675 222.78523574 -28.67578125 218.2578125 C-27 216 -27 216 -24.79296875 215.1796875 C-24.20128906 215.12039063 -23.60960937 215.06109375 -23 215 C-21.81736268 218.44451198 -21.91146565 219.79341985 -23.37109375 223.19921875 C-24.04223952 224.37225901 -24.73214417 225.53470633 -25.4375 226.6875 C-25.80222412 227.30181885 -26.16694824 227.9161377 -26.54272461 228.54907227 C-29.90393461 234.08564987 -33.70645235 239.14794208 -38 244 C-38.55171875 244.63421875 -39.1034375 245.2684375 -39.671875 245.921875 C-51.54697888 258.7017487 -67.93772009 264.42978329 -84.98632812 265.12109375 C-98.95901961 265.53326754 -112.3907433 265.33376277 -126 262 C-127.12277344 261.73316406 -128.24554688 261.46632813 -129.40234375 261.19140625 C-144.1085022 257.33039616 -158.39818514 251.38514998 -172.1875 245.03125 C-175.13071747 243.95207026 -176.90561706 243.55369477 -180 244 C-182.51907292 245.30307636 -182.51907292 245.30307636 -185 247.125 C-205.68241306 260.83954128 -228.72484238 265.12299938 -253.125 265.4375 C-254.14319824 265.45981689 -255.16139648 265.48213379 -256.21044922 265.50512695 C-266.50424916 265.47397444 -274.80281655 262.7687333 -282.44140625 255.78125 C-286.20820085 251.47634189 -286.55642888 247.52363037 -286.4375 241.94140625 C-285.16861948 233.4104506 -278.51028327 226.25410445 -272 221 C-253.20543185 208.30587869 -231.86424729 206.03856737 -209.67895508 210.02783203 C-200.1629212 212.03240773 -190.97766343 215.17646933 -181.82983398 218.4453125 C-180.36719116 218.96158203 -180.36719116 218.96158203 -178.875 219.48828125 C-177.57175781 219.96068237 -177.57175781 219.96068237 -176.2421875 220.44262695 C-173.85383058 221.24891613 -173.85383058 221.24891613 -171 220 C-169.36697418 217.29195138 -167.97599024 214.66184642 -166.625 211.8125 C-166.19944824 210.91700439 -165.77389648 210.02150879 -165.33544922 209.09887695 C-160.96945354 199.5237914 -157.52887571 189.6363484 -154.125 179.6875 C-153.8485968 178.88406158 -153.5721936 178.08062317 -153.28741455 177.25283813 C-150.28843832 168.49081473 -147.5668387 159.73959199 -145.40278625 150.73335266 C-137.34451225 117.207939 -124.15575266 82.81299212 -105 54 C-104.60603027 53.40687012 -104.21206055 52.81374023 -103.80615234 52.20263672 C-96.82648538 41.8258112 -88.84628255 32.84628255 -80 24 C-79.484375 23.43796875 -78.96875 22.8759375 -78.4375 22.296875 C-62.21134242 4.83611848 -23.04275101 -15.65374534 0 0 Z " fill="#040404" transform="translate(349,108)"/>
<path d="M0 0 C1.08023438 0.5671875 2.16046875 1.134375 3.2734375 1.71875 C-6.06190475 11.93312636 -19.35166926 15.59831331 -32.7265625 16.71875 C-63.47244895 18.0399184 -63.47244895 18.0399184 -73.7265625 10.71875 C-77.84515301 6.6990776 -80.84456769 3.28747738 -81.1015625 -2.59375 C-81.04948915 -6.19838317 -80.85482371 -7.10246164 -78.6640625 -10.15625 C-58.02700076 -25.08518828 -19.99252424 -9.96555838 0 0 Z " fill="#FCFCFC" transform="translate(159.7265625,345.28125)"/>
<path d="M0 0 C17.49 0 34.98 0 53 0 C52.29426688 5.645865 51.48669986 10.25410366 49.68676758 15.50732422 C49.45242004 16.21109695 49.21807251 16.91486969 48.97662354 17.63996887 C48.20635349 19.94732059 47.42552858 22.25094705 46.64453125 24.5546875 C46.0991668 26.18142925 45.55447591 27.80839695 45.01042175 29.43557739 C43.57758461 33.7150595 42.1357891 37.99146977 40.6920166 42.26727295 C39.24445854 46.55921729 37.80512209 50.8539151 36.36523438 55.1484375 C34.234798 61.50008224 32.09960995 67.85010147 29.96020508 74.19873047 C26.95247696 83.12549704 23.97380725 92.06188467 21 101 C18.36 101 15.72 101 13 101 C13.61520573 94.86788959 15.38797547 89.43299212 17.421875 83.6328125 C17.9346701 82.14332596 17.9346701 82.14332596 18.45782471 80.62374878 C19.5492996 77.45541818 20.6489566 74.29001687 21.75 71.125 C26.07076816 58.67283987 30.34423344 46.2493518 33.96728516 33.57421875 C35.29331593 28.98483563 36.77040507 24.45799464 38.3125 19.9375 C38.57611328 19.15568359 38.83972656 18.37386719 39.11132812 17.56835938 C39.73796014 15.71124996 40.36849342 13.85545749 41 12 C36.30368842 12.04442043 31.60868737 12.11452783 26.91308594 12.20751953 C25.31879153 12.23558582 23.72436168 12.25687113 22.12988281 12.27099609 C8.46884237 12.17263551 8.46884237 12.17263551 -3.0234375 18.921875 C-3.46945312 19.52515625 -3.91546875 20.1284375 -4.375 20.75 C-5.7734375 22.609375 -5.7734375 22.609375 -7 24 C-7.66 24 -8.32 24 -9 24 C-7.32438301 15.62191503 -3.31556046 7.8744561 0 0 Z " fill="#080808" transform="translate(316,199)"/>
<path d="M0 0 C6.42490537 4.06791029 10.75525635 8.50962921 14.09765625 15.328125 C14.59265625 16.318125 14.59265625 16.318125 15.09765625 17.328125 C15.22122805 19.40872925 15.27325992 21.49388833 15.28515625 23.578125 C15.29933594 24.69703125 15.31351562 25.8159375 15.328125 26.96875 C15.09232938 30.40577084 14.32612288 33.12342945 13.09765625 36.328125 C9.46765625 36.328125 5.83765625 36.328125 2.09765625 36.328125 C1.95070313 34.70003906 1.95070313 34.70003906 1.80078125 33.0390625 C1.65060949 31.59365935 1.49951893 30.14835147 1.34765625 28.703125 C1.28578125 27.99027344 1.22390625 27.27742188 1.16015625 26.54296875 C0.45782195 20.1634322 -1.73824136 16.11586176 -6.77734375 11.953125 C-12.32653047 9.08825203 -18.86902906 9.62387527 -24.90234375 10.328125 C-31.2295306 13.15276199 -36.00073789 19.08693504 -38.90234375 25.328125 C-39.56234375 25.328125 -40.22234375 25.328125 -40.90234375 25.328125 C-40.47396541 16.07515282 -37.81063561 9.24807944 -30.9375 2.87109375 C-21.99636094 -3.9076969 -10.0157102 -5.16236243 0 0 Z " fill="#0A0A0A" transform="translate(314.90234375,160.671875)"/>
<path d="M0 0 C0.495 0.99 0.495 0.99 1 2 C1.99 2 2.98 2 4 2 C2.60308695 5.12572294 0.94792195 7.34391917 -1.40625 9.8203125 C-2.06753906 10.52027344 -2.72882813 11.22023437 -3.41015625 11.94140625 C-4.44462891 13.02228516 -4.44462891 13.02228516 -5.5 14.125 C-6.18964844 14.85332031 -6.87929688 15.58164063 -7.58984375 16.33203125 C-10.03671879 18.91245892 -12.48540107 21.48540107 -15 24 C-9.84055127 24.09920549 -4.68166311 24.17162646 0.47851562 24.21972656 C2.23219479 24.2397871 3.98580753 24.26704251 5.73925781 24.30175781 C8.26644318 24.35052302 10.79274091 24.37302392 13.3203125 24.390625 C14.48785568 24.42159271 14.48785568 24.42159271 15.6789856 24.45318604 C20.91220903 24.45532173 23.85528415 23.47156196 28 20 C28.66 19.01 29.32 18.02 30 17 C30.99 17 31.98 17 33 17 C32.58771609 18.29307226 32.16979706 19.58434733 31.75 20.875 C31.51796875 21.59429687 31.2859375 22.31359375 31.046875 23.0546875 C29.49575482 27.41865994 27.72007334 31.69981664 26 36 C6.86 36 -12.28 36 -32 36 C-30.83559007 31.34236029 -28.71503289 29.34423134 -25.390625 26.1328125 C-24.82680115 25.57560516 -24.26297729 25.01839783 -23.68206787 24.44430542 C-21.87834132 22.66396063 -20.06479039 20.8940596 -18.25 19.125 C-16.45120229 17.36144444 -14.65461776 15.59571721 -12.86077881 13.82711792 C-11.74542518 12.72852447 -10.6269916 11.6330458 -9.50494385 10.54129028 C-6.09461279 7.19533894 -3.0048742 3.71553319 0 0 Z " fill="#090909" transform="translate(303,223)"/>
<path d="M0 0 C0.33 0.66 0.66 1.32 1 2 C0.00300573 4.18676084 -1.04725825 6.26460937 -2.1875 8.375 C-6.04144327 15.77910852 -10 23.5163133 -10 32 C-8.9171875 31.2265625 -8.9171875 31.2265625 -7.8125 30.4375 C-5 29 -5 29 -2.3125 29.1875 C0 30 0 30 2 32 C2.11202953 38.49771297 0.30490068 41.66393697 -4.16796875 46.30078125 C-7.4703185 49.36372824 -9.66226437 50.86884945 -14.1875 51.3125 C-17 51 -17 51 -19 49 C-19.89042797 37.52337285 -14.28002859 26.11606723 -9.5 15.9375 C-9.13269775 15.1527832 -8.76539551 14.36806641 -8.38696289 13.55957031 C-6.00933502 8.65207079 -3.28424135 4.35393264 0 0 Z " fill="#161616" transform="translate(296,297)"/>
<path d="M0 0 C-0.34933594 0.61746094 -0.69867188 1.23492187 -1.05859375 1.87109375 C-4.21631266 7.74820798 -5.67747335 12.3344493 -6 19 C-4.68 18.34 -3.36 17.68 -2 17 C-3 20 -3 20 -6 22 C-8.6875 21.625 -8.6875 21.625 -11 21 C-11.33 19.35 -11.66 17.7 -12 16 C-12.44730469 16.44472656 -12.89460938 16.88945312 -13.35546875 17.34765625 C-18.34104438 22.01432512 -18.34104438 22.01432512 -21.875 21.9375 C-24 21 -24 21 -25 20 C-25.70783191 15.28786185 -25.61244508 11.23061371 -22.9375 7.1875 C-16.32071166 -0.69399303 -9.77173402 -0.52899613 0 0 Z " fill="#F7F7F7" transform="translate(271,326)"/>
<path d="M0 0 C0.5775 0.226875 1.155 0.45375 1.75 0.6875 C2.06817712 5.30106825 2.11922033 7.87521527 0.1875 12.125 C-2.88131724 15.35119248 -4.88521657 15.51962371 -9.25 15.6875 C-9.56464883 10.44335282 -9.08856733 7.14810581 -6.25 2.6875 C-3.12804878 -0.43445122 -3.12804878 -0.43445122 0 0 Z " fill="#F6F6F6" transform="translate(291.25,329.3125)"/>
<path d="M0 0 C1.77503906 0.03480469 1.77503906 0.03480469 3.5859375 0.0703125 C5.36871094 0.09738281 5.36871094 0.09738281 7.1875 0.125 C8.10273438 0.14820313 9.01796875 0.17140625 9.9609375 0.1953125 C9.61160156 0.81277344 9.26226562 1.43023437 8.90234375 2.06640625 C5.74462484 7.94352048 4.28346415 12.5297618 3.9609375 19.1953125 C5.2809375 18.5353125 6.6009375 17.8753125 7.9609375 17.1953125 C6.9609375 20.1953125 6.9609375 20.1953125 3.9609375 22.1953125 C1.2734375 21.8203125 1.2734375 21.8203125 -1.0390625 21.1953125 C-2.0475295 16.36124785 -2.73294207 12.63421221 -0.1015625 8.2578125 C0.5790625 7.2471875 1.2596875 6.2365625 1.9609375 5.1953125 C1.9609375 4.5353125 1.9609375 3.8753125 1.9609375 3.1953125 C-0.3490625 2.8653125 -2.6590625 2.5353125 -5.0390625 2.1953125 C-3.0390625 0.1953125 -3.0390625 0.1953125 0 0 Z " fill="#202020" transform="translate(261.0390625,325.8046875)"/>
<path d="M0 0 C0.66 0.33 1.32 0.66 2 1 C1.34 1.61875 0.68 2.2375 0 2.875 C-2.79514062 7.24240721 -2.35288244 10.95182061 -2 16 C0.49361571 14.79618552 2.68143083 13.54571278 5 12 C3.50733258 15.79951706 1.44718865 17.8354862 -2 20 C-6.29268293 19.70731707 -6.29268293 19.70731707 -8 18 C-8.73540689 13.10429126 -8.57584436 9.18251072 -5.6875 5.0625 C-3.87949184 2.76584098 -2.51253956 1.67502637 0 0 Z " fill="#1E1E1E" transform="translate(254,328)"/>
<path d="M0 0 C2.4375 0.75 2.4375 0.75 4.4375 2.75 C4.20962614 9.81408952 4.20962614 9.81408952 1.375 13.25 C0.4159375 13.9925 0.4159375 13.9925 -0.5625 14.75 C-1.84567892 10.90046324 -1.62893637 7.80261865 -1.5625 3.75 C-4.32526177 4.27268466 -6.8885876 4.85869587 -9.5625 5.75 C-9.2325 4.43 -8.9025 3.11 -8.5625 1.75 C-7.5725 1.75 -6.5825 1.75 -5.5625 1.75 C-2.5625 -0.25 -2.5625 -0.25 0 0 Z " fill="#242424" transform="translate(293.5625,326.25)"/>
<path d="M0 0 C0.77601563 -0.00515625 1.55203125 -0.0103125 2.3515625 -0.015625 C4.375 0.25 4.375 0.25 6.375 2.25 C6.5 5.375 6.5 5.375 6.375 8.25 C5.97925781 7.76402344 5.58351563 7.27804687 5.17578125 6.77734375 C2.27638105 4.31819955 -0.46101022 4.78269435 -4.125 4.89453125 C-7.75034108 5.41000944 -9.8462637 6.92361612 -12.625 9.25 C-14.048125 10.36375 -14.048125 10.36375 -15.5 11.5 C-16.20125 12.0775 -16.9025 12.655 -17.625 13.25 C-16.2463147 10.15137066 -14.65476802 8.00876568 -12.25 5.625 C-11.66476562 5.03460938 -11.07953125 4.44421875 -10.4765625 3.8359375 C-7.10050503 0.94420895 -4.43768676 -0.02968352 0 0 Z " fill="#121212" transform="translate(314.625,283.75)"/>
<path d="M0 0 C0.33 0.66 0.66 1.32 1 2 C-0.0309712 4.38393626 -1.11213951 6.64125913 -2.3125 8.9375 C-2.63412109 9.57107422 -2.95574219 10.20464844 -3.28710938 10.85742188 C-4.73491513 13.68465653 -6.23628392 16.35442588 -8 19 C-8.66 19 -9.32 19 -10 19 C-8.65610276 14.49558061 -6.84328221 10.7205754 -4.4375 6.6875 C-3.50744141 5.11548828 -3.50744141 5.11548828 -2.55859375 3.51171875 C-1 1 -1 1 0 0 Z " fill="#262626" transform="translate(296,297)"/>
<path d="M0 0 C0.66 0.33 1.32 0.66 2 1 C-1.77024843 4.92734211 -5.88470051 8.44406161 -10 12 C-10 9 -10 9 -8.3203125 6.9921875 C-7.59585937 6.29351562 -6.87140625 5.59484375 -6.125 4.875 C-5.40570313 4.17117188 -4.68640625 3.46734375 -3.9453125 2.7421875 C-2 1 -2 1 0 0 Z " fill="#292929" transform="translate(308,285)"/>
</svg>
